<svg id="Layer_1" data-name="Layer 1" xmlns="http://www.w3.org/2000/svg" viewBox="0 0 271.55 83.65"><defs><style>.cls-1{fill:#00caff;}</style></defs><title>SPAC2018-Logo-BLUE</title><path id="S" class="cls-1" d="M77,133.59s0.17-25.33-29-25.33-32,16.5-32,25.33c0,0-3.2,10.51,21.75,20.85,13.56,5.63,21.44,6.44,21.44,13.31S55.75,178.2,48.13,178.2s-15.19-3.5-15.19-12.69v-1.56H14.56v3.75s-1.81,24.13,32,24.13S77.75,168.2,77.75,168.2s1.94-13.25-13.12-19.75-29.69-9.56-29.69-17.12,5.81-9.19,11.25-9.19,11.87,1.33,11.87,11.46H77Z" transform="translate(-14.55 -108.18)"/><path id="P" class="cls-1" d="M122.58,109.68H88.17V191h18.75V162.76h17.75c6.33,0,23.5-3,23.5-28.33S122.58,109.68,122.58,109.68Zm-0.83,39.42H107.33v-25h14.33s10.17,0.92,10.17,12.5S121.75,149.09,121.75,149.09Z" transform="translate(-14.55 -108.18)"/><path id="C" class="cls-1" d="M286,136.09s3.42-27.92-30.92-27.92-33.25,27.92-33.25,27.92v27.6a18.31,18.31,0,0,0,.79,5.4c2.12,6.87,9.44,22.26,32.55,22.26,29.75,0,30.93-19.92,30.93-28.25h-18S269.42,178,255.34,178s-14.67-12.17-14.67-14.92v-27.5c0-14.76,15.08-13.17,15.08-13.17s12.33-.08,12.33,13.67H286Z" transform="translate(-14.55 -108.18)"/><path class="cls-1" d="M154.65,161.59" transform="translate(-14.55 -108.18)"/><path class="cls-1" d="M202.66,142.94" transform="translate(-14.55 -108.18)"/><path class="cls-1" d="M145.25,191h73l-9.55-29.45a13.53,13.53,0,0,1-3.66.65L196.5,144.3c1.54-2.29,5.92-1.87,5.92-1.87l0.24,0.51-10.79-33.26H171.25L160.61,143l0.25-.53s4.38-.42,5.92,1.88l-8.54,17.92a13.62,13.62,0,0,1-3.59-.63m7.72,1.43,1.74,1.57,1.13-.46c1.24-.48,2-0.75,2.79.06l0.61,0.46a2.9,2.9,0,0,1,.68,3c-0.1.44-.14,0.75-0.2,1l1.09-.32c1.91-.54,2.34-0.25,3.08.5a2.12,2.12,0,0,1,.54,2.45,3.39,3.39,0,0,0-.15,1l0.17-.05c1.78-.5,2.75-0.21,3.45.49a2.52,2.52,0,0,1,.5,2.28,2.58,2.58,0,0,1-.34,1.62l0.08,0.07a5.53,5.53,0,0,1,1.15-.47,2.37,2.37,0,0,1,2.65.57,1.56,1.56,0,0,1,.4,1.8,3.3,3.3,0,0,1-.59,1.35l0.06,0.05,1,0.7c1.27,1.11,5.06-.27,3.39-1.84,0,0-3.79-3.08-4.93-4s0.27-1.61,1.34-.84l7.27,5.3c1.21,0.87,4.79-.9,2.45-3,0,0-8.08-6.11-8.58-6.51s0.1-1.78,1.51-.77L194,176c1.81,1.34,4.79-1.14,2.31-3.22,0,0-9.79-7.27-10.93-8.14s0.13-1.88,1.24-1c0,0,9.64,7,11.33,8.35s4.85-2.21,2.92-4.15c0,0-16.32-14.31-17.57-15.37s-2.84-.45-4.11.17-1.15,1.4-1.15,1.4a5.78,5.78,0,0,1-.85,3.24c-1.86,4-4.93,2.82-6.18,2.79s-1.86-1.13-.75-2.29,1.11-3.47,1.11-5.18,1.81-3.72,1.81-3.72h-4.78s-0.44-.7.7-1.31,4.73-.23,4.73-0.23c6.5,0,4.93-2.18,9.45-2.18,0,0,4-.1,6,1.21s5.76,0.64,5.76.64L203,163.66l-2.21,2.15,1.14,1.31s2.21,2.28.27,4.52a4.24,4.24,0,0,1-4.09,1.68,2.61,2.61,0,0,1-.67,3,3.62,3.62,0,0,1-3.82.77c0.54,0.94-.84,2.45-0.84,2.45-2.38,2.75-5.53.2-5.53,0.2-0.37,2-3.52,4-6.44,1.31l-0.44-.37a11.11,11.11,0,0,1-1.29,1,1.72,1.72,0,0,1-2.16-.05,2.31,2.31,0,0,1-.44-3,1.63,1.63,0,0,0,.19-0.57,3.55,3.55,0,0,1-1.75,1.28c-1,.4-2.43.71-3.13,0-1.53-1.31-1.16-2.76-.9-4-0.93.63-2.72,2-4.39,0.3-1.2-1.2-.54-2.69-0.1-3.95-2.59,1.64-4.36,1.07-5.13.3s-0.44-2.56.28-3.9c0.57-1,.64-1.87,1.14-2.57-1-.85-1.65-1.44-1.81-1.59C160,163.06,161.1,161.85,162.38,163Z" transform="translate(-14.55 -108.18)"/></svg>